<svg xmlns="http://www.w3.org/2000/svg" xmlns:xlink="http://www.w3.org/1999/xlink" width="1920" height="1080" viewBox="0 0 1920 1080">
  <defs>
    <linearGradient id="linear-gradient" x1="0.5" x2="0.5" y2="1" gradientUnits="objectBoundingBox">
      <stop offset="0" stop-color="#cc9b90"/>
      <stop offset="1" stop-color="#024a77"/>
    </linearGradient>
    <linearGradient id="linear-gradient-2" x1="0.5" x2="0.5" y2="1" gradientUnits="objectBoundingBox">
      <stop offset="0" stop-color="#ff3d1d"/>
      <stop offset="1" stop-color="#fffb0f"/>
    </linearGradient>
    <linearGradient id="linear-gradient-3" x1="0.985" y1="-0.097" x2="0.253" y2="1.561" gradientUnits="objectBoundingBox">
      <stop offset="0" stop-color="#0d18a5"/>
      <stop offset="1" stop-color="#bce298"/>
    </linearGradient>
    <clipPath id="clip-N1">
      <rect width="1920" height="1080"/>
    </clipPath>
  </defs>
  <g id="N1" clip-path="url(#clip-N1)">
    <path id="Path_250" data-name="Path 250" d="M8473.266,1242.3l509.668-520.98,168.492,168.492,357.643-357.642L9628,651.1l472.486-472.487,122,122L10516.565,6.523,10679.6-151.148l.4,1397.4Z" transform="translate(-8632.256 25.941)" fill="url(#linear-gradient)"/>
    <path id="Path_249" data-name="Path 249" d="M8458,1148.006l240.162-240.162,124.688,124.687,367.56-367.56,167.874,167.874,438.209-438.209L9934.5,532.649l315.033-315.034,72.208,72.208,223.5-223.5V1148.006Z" transform="translate(-8513.5 -64.759)" fill="url(#linear-gradient-2)"/>
    <path id="Path_248" data-name="Path 248" d="M8458,1039.718l255.678-249.949,126.738,123.9L9234.3,528.6,9426.1,716.1l444.627-434.667L9986.79,394.9,10378,12.45V1091.6H8458Z" transform="translate(-8346.256 36.389)" fill="url(#linear-gradient-3)"/>
  </g>
</svg>
