<?xml version="1.0" encoding="utf-8"?>
<!-- Generator: Adobe Illustrator 18.1.1, SVG Export Plug-In . SVG Version: 6.00 Build 0)  -->
<svg version="1.1" id="Layer_1" xmlns="http://www.w3.org/2000/svg" xmlns:xlink="http://www.w3.org/1999/xlink" x="0px" y="0px"
	 viewBox="0 0 1920 1080" enable-background="new 0 0 1920 1080" xml:space="preserve">
<g>
	<defs>
		<!-- <style type=text/css>
			#Lowest_x5F_purple{
				opacity=1;
			}
		</style> -->
		<rect id="SVGID_1_" width="1920" height="1080"/>
	</defs>
	<clipPath id="SVGID_2_">
		<use xlink:href="#SVGID_1_"  overflow="visible"/>
	</clipPath>
	<g id="N2" clip-path="url(#SVGID_2_)">
		<g id="Farthest_x5F_purple">
			
				<linearGradient id="Path_250_1_" gradientUnits="userSpaceOnUse" x1="0.5" y1="1080" x2="0.5" y2="1079" gradientTransform="matrix(2206.7344 0 0 -1397.4 -158.9902 1509066.875)">
				<stop  offset="0" style="stop-color:#CC9B90"/>
				<stop  offset="1" style="stop-color:#024A77"/>
			</linearGradient>
			<path id="Path_250" fill="url(#Path_250_1_)" d="M-159,1268.2l509.7-521l168.5,168.5l357.6-357.6L995.7,677l472.5-472.5l122,122
				l294.1-294.1l163-157.7l0.4,1397.4L-159,1268.2z"/>
		</g>
		<g id="Slight_x5F_orange">
			
				<linearGradient id="Path_249_1_" gradientUnits="userSpaceOnUse" x1="0.5" y1="1080" x2="0.5" y2="1079" gradientTransform="matrix(2087.2412 0 0 -1081.683 -55.5 1168219.125)">
				<stop  offset="0" style="stop-color:#FF3D1D"/>
				<stop  offset="1" style="stop-color:#FFFB0F"/>
			</linearGradient>
			<path id="Path_249" fill="url(#Path_249_1_)" d="M-55.5,1083.2l240.2-240.2l124.7,124.7l367.6-367.6l167.9,167.9L1283,329.9
				l138,138l315-315l72.2,72.2L2031.7,1.6v1081.7H-55.5z"/>
		</g>
		<g id="Second_x5F_lowest_x5F_blue">
			
				<linearGradient id="Path_248_1_" gradientUnits="userSpaceOnUse" x1="0.9756" y1="1080.1012" x2="0.2435" y2="1078.4431" gradientTransform="matrix(1920 0 0 -1079.15 111.7441 1165530.875)">
				<stop  offset="0" style="stop-color:#0D18A5"/>
				<stop  offset="1" style="stop-color:#BCE298"/>
			</linearGradient>
			<path id="Path_248" fill="url(#Path_248_1_)" d="M111.7,1076.1l255.7-249.9l126.7,123.9L888,565l191.8,187.5l444.6-434.7
				l116.1,113.5l391.2-382.5V1128h-1920V1076.1z"/>
		</g>
		<g id="Lowest_x5F_purple">
			<path id="Path_267" fill="#505075" d="M0,1080l176.5-176.5l124.4,124.4l350.4-350.4l131.8,131.8L894.3,698l111.2,111.2
				L1256.8,558l75.8,75.8L1499,467.4l139.8,139.8l180-180l40.2,40.2l75.8-75.8v1549.6H0V1080z"/>
		</g>
	</g>
</g>
</svg>
