<svg width="22" height="24" viewBox="0 0 22 24" fill="none" xmlns="http://www.w3.org/2000/svg">
<path fill-rule="evenodd" clip-rule="evenodd" d="M6.74439 12.0345V12.0324C6.74439 11.7482 6.86309 11.4921 7.05463 11.3092H7.05328L13.1232 5.27859L13.1259 5.28141C13.308 5.10693 13.5549 5.0014 13.826 5.0014C14.3858 5.0014 14.8376 5.45166 14.8376 6.00744C14.8376 6.31136 14.7007 6.58433 14.4849 6.76865L9.18383 12.0345L14.5544 17.3693C14.7297 17.5501 14.8376 17.7956 14.8376 18.0658C14.8376 18.6216 14.3858 19.0718 13.826 19.0718C13.5535 19.0718 13.3067 18.9642 13.1246 18.7904L7.05328 12.7612V12.7598C6.86309 12.5769 6.74439 12.3208 6.74439 12.0366V12.0345Z" fill="black"/>
</svg>
