<svg width="114" height="88" viewBox="0 0 114 88" fill="none" xmlns="http://www.w3.org/2000/svg">
<path d="M18.2587 45.9174C18.2587 45.9174 27.3534 47.576 33.9101 38.8685C33.9101 38.8685 28.411 33.5819 24.6039 34.7221C20.7968 35.8624 18.2587 42.6003 18.2587 42.6003V45.9174Z" fill="#A0616A"/>
<path opacity="0.1" d="M18.2587 45.9174C18.2587 45.9174 27.3534 47.576 33.9101 38.8685C33.9101 38.8685 28.411 33.5819 24.6039 34.7221C20.7968 35.8624 18.2587 42.6003 18.2587 42.6003V45.9174Z" fill="black"/>
<path d="M22.3831 38.8685L31.6893 57.6309L33.9101 56.4907L24.2866 38.8685H22.3831Z" fill="#504F60"/>
<path d="M33.9101 38.8685C32.2246 38.885 30.5476 39.1039 28.9165 39.5205C26.666 40.1026 24.5262 41.0372 22.5798 42.2882C19.7657 44.0847 18.2587 45.9174 18.2587 45.9174C11.5487 34.3572 13.0494 13.5029 13.1752 11.9096V11.9086C13.1773 11.8837 13.1784 11.863 13.1794 11.8485C13.1815 11.8246 13.1826 11.8132 13.1826 11.8132C17.6242 11.8132 33.9101 38.8685 33.9101 38.8685Z" fill="#A0616A"/>
<path d="M113.803 61.3409L103.495 64.0579C103.495 64.0579 87.6324 64.3689 82.1333 69.0335C76.6341 73.6982 60.6655 73.1799 60.2425 73.1799C59.8195 73.1799 53.8973 68.1006 43.1106 73.3873C32.3238 78.6739 19.422 75.3568 19.422 75.3568C19.422 75.3568 5.99141 80.8508 2.18432 78.9849C-1.62277 77.119 0.703783 74.6312 0.703783 74.6312C0.703783 74.6312 8.52947 68.7226 2.50158 62.192C-3.52632 55.6614 3.5591 55.6614 3.5591 55.6614H23.9471C25.6111 55.6765 27.2532 55.2895 28.7282 54.5346C30.3209 53.7002 32.1948 53.9666 33.449 54.318C34.5335 54.6201 35.6732 54.6803 36.7844 54.4942C47.0181 52.7931 53.5483 53.2803 56.262 53.6514C57.3913 53.8046 58.5347 53.8321 59.6704 53.7333C63.1285 53.4379 70.3048 52.8108 74.2018 52.3567C75.2742 52.2323 76.098 52.1214 76.5284 52.0333C77.734 51.7866 83.4256 52.874 89.1827 54.3283C95.5448 55.934 101.988 57.9886 102.544 59.1859C103.309 60.8361 110.057 60.9118 113.728 60.8278C113.793 60.8265 113.856 60.8486 113.906 60.8898C113.955 60.9311 113.988 60.9887 113.997 61.0518C114.006 61.1149 113.992 61.1792 113.956 61.2324C113.92 61.2857 113.866 61.3243 113.803 61.3409Z" fill="#EED1D7"/>
<path d="M73.6731 68.9299L71.135 69.4482C71.135 69.4482 61.0885 64.1615 59.7137 65.9237" fill="#CCB2BB"/>
<path d="M71.135 53.7955C71.135 53.7955 54.8491 50.582 48.0809 54.4175L71.135 53.7955Z" fill="#CCB2BB"/>
<path opacity="0.1" d="M58.8815 59.5701C58.8815 59.5701 54.8098 57.9387 54.9881 58.8709C55.1664 59.8031 57.2468 60.7354 57.2468 60.7354C57.2468 60.7354 53.1454 60.3858 53.3238 61.7841C53.3238 61.7841 58.0196 61.6676 57.8413 62.7164C57.6629 63.7651 57.8412 65.1635 58.614 64.8721C59.3867 64.5808 59.8622 61.2015 61.9427 62.8329C64.0231 64.4643 63.7259 61.1432 61.1699 60.8519C61.1699 60.8519 62.5371 59.8614 62.4182 59.3953C62.2993 58.9292 58.8815 59.5701 58.8815 59.5701Z" fill="black"/>
<path d="M58.822 59.3953C58.822 59.3953 54.7503 57.7639 54.9287 58.6961C55.107 59.6283 57.1874 60.5606 57.1874 60.5606C57.1874 60.5606 53.086 60.211 53.2643 61.6093C53.2643 61.6093 57.9601 61.4928 57.7818 62.5416C57.6035 63.5903 57.7818 64.9887 58.5545 64.6973C59.3273 64.406 59.8028 61.0267 61.8832 62.6581C63.9637 64.2895 63.6665 60.9684 61.1105 60.6771C61.1105 60.6771 62.4776 59.6866 62.3587 59.2205C62.2399 58.7544 58.822 59.3953 58.822 59.3953Z" fill="#F89898"/>
<path d="M90.4877 62.6067C90.4877 62.6067 84.6713 60.8445 84.1426 61.1555L90.4877 62.6067Z" fill="#CCB2BB"/>
<path d="M45.3314 64.1615C45.3314 64.1615 53.1571 61.9846 56.1181 63.6432L45.3314 64.1615Z" fill="#CCB2BB"/>
<path d="M58.2861 55.2986C58.2861 55.2986 60.4011 49.1827 64.6312 50.4266C68.8613 51.6705 72.0339 54.884 72.0339 54.884L58.2861 55.9206V55.2986Z" fill="#EED1D7"/>
<path d="M12.2837 62.1401C12.2837 62.1401 15.562 63.4877 21.0612 62.9694C26.5603 62.4511 30.8961 65.6646 30.8961 65.6646" fill="#CCB2BB"/>
<path opacity="0.1" d="M101.924 48.6763C97.7781 55.4492 98.4359 64.609 100.14 71.816C100.711 74.229 101.371 76.7757 100.829 79.4897C100.165 82.8084 97.8557 85.4347 95.5313 86.9471C91.2941 89.7039 86.4919 89.6828 83.0287 86.892C80.0358 84.4802 78.0957 80.238 75.0378 77.958C69.9204 74.1425 62.818 76.5718 56.6282 80.263C52.249 82.8744 47.4253 86.1751 43.4283 84.384C40.6158 83.1237 38.8945 79.4956 38.1169 75.5353C37.7414 73.6232 37.5257 71.5327 36.6309 70.0825C36.0989 69.2203 35.36 68.6479 34.5935 68.1809C27.5936 63.9167 18.0152 67.6582 11.2727 62.8169C6.71906 59.5473 4.18663 52.717 3.41298 45.3905C2.63934 38.064 3.43337 30.2061 4.40542 22.4673C5.09622 16.9677 6.01435 11.0766 8.88707 6.57603C11.926 1.81509 16.6561 -0.349091 20.7415 0.0456531C24.8269 0.440398 28.3477 3.0552 31.3721 6.25778C35.1521 10.2603 38.5432 15.3884 43.4803 16.6371C46.8425 17.4875 50.5382 16.4168 54.1271 15.7934C60.1269 14.7512 66.0278 14.9635 71.8867 15.2619C77.4956 15.5476 83.1382 15.9201 88.345 17.8811C92.0298 19.2688 94.8359 22.2127 98.268 24.1083C100.505 25.3439 103.043 25.475 105.122 27.1332C107.682 29.1758 109.874 32.976 108.784 37.8227C107.748 42.4307 104.124 45.0816 101.924 48.6763Z" fill="#FFDF6C"/>
<g opacity="0.05">
<path opacity="0.05" d="M25.5985 37.29C25.6245 37.2469 25.6366 37.197 25.6331 37.147C25.6176 37.1936 25.606 37.2415 25.5985 37.29Z" fill="url(#paint0_linear)"/>
</g>
<g opacity="0.05">
<path opacity="0.05" d="M25.5985 37.2186C25.6245 37.1756 25.6366 37.1257 25.6331 37.0756C25.6176 37.1223 25.606 37.1701 25.5985 37.2186Z" fill="url(#paint1_linear)"/>
</g>
<g opacity="0.05">
<path opacity="0.05" d="M31.849 55.1267C31.6198 55.2229 31.0738 55.727 30.3655 56.4504C30.1406 54.9985 29.9949 53.6891 30.0891 53.1446C30.0972 53.0632 30.1259 52.985 30.1727 52.9173C30.5978 52.8888 31.4611 53.9305 32.1509 54.8722C31.9598 55.0222 31.849 55.1267 31.849 55.1267Z" fill="url(#paint2_linear)"/>
</g>
<path d="M43.1499 61.4816C43.1499 61.4816 46.8563 68.6779 47.7829 68.9574C48.7095 69.2369 49.351 68.8177 49.351 68.8177C49.351 68.8177 57.0491 67.4203 55.6235 69.0273C54.1979 70.6342 41.7243 69.6561 41.7243 69.6561L38.5881 62.7392L43.1499 61.4816Z" fill="#EF91A3"/>
<path opacity="0.1" d="M32.5294 61.6214C32.5294 61.6214 38.5168 57.7088 40.1562 57.7088C40.1562 57.7088 42.5796 56.9402 44.0052 62.2502C44.0052 62.2502 39.087 63.0886 39.1583 65.3942L38.2317 63.4379L34.2401 67.7697L29.3932 64.5558L32.5294 61.6214Z" fill="black"/>
<path d="M32.5294 61.4816C32.5294 61.4816 38.5168 57.5691 40.1562 57.5691C40.1562 57.5691 42.5796 56.8005 44.0052 62.1104C44.0052 62.1104 39.087 62.9489 39.1583 65.2545L38.2317 63.2982L34.2401 67.63L29.3932 64.4161L32.5294 61.4816Z" fill="#5D526E"/>
<path d="M39.087 59.5253C38.7306 61.2021 36.8774 61.4816 36.8774 61.4816L34.2401 59.8746C34.2401 59.8746 33.868 57.4677 33.5537 56.0005C33.4332 55.4366 33.3213 55.0111 33.2422 54.914C32.9571 54.5647 37.4476 54.6345 37.4476 54.6345C37.7628 55.1567 38.0497 55.6947 38.3072 56.2464C38.7962 57.2951 39.2773 58.6296 39.087 59.5253Z" fill="#EF91A3"/>
<path d="M27.6826 46.8793L26.1857 53.8661L22.5505 52.9578C22.5505 52.9578 19.2005 50.3727 20.1984 48.7657C20.5248 48.2403 20.6909 47.476 20.7672 46.6858C20.9233 45.0572 20.6973 43.3161 20.6973 43.3161C20.6973 43.3161 24.6889 42.2681 23.9048 45.1326C23.5826 46.3092 24.1621 46.8136 24.9569 47.0002C26.098 47.2678 27.6826 46.8793 27.6826 46.8793Z" fill="#EF91A3"/>
<path opacity="0.1" d="M24.9569 47.0002C24.3898 47.2891 23.7599 47.4393 23.1208 47.4383C22.2405 47.4383 21.393 46.8982 20.733 46.4252C20.8243 45.3901 20.8124 44.3488 20.6973 43.3161C20.6973 43.3161 24.6889 42.2681 23.9048 45.1326C23.5827 46.3092 24.1621 46.8137 24.9569 47.0002Z" fill="black"/>
<path d="M23.1208 47.2985C25.3253 47.2985 27.1123 45.5468 27.1123 43.386C27.1123 41.2251 25.3253 39.4734 23.1208 39.4734C20.9163 39.4734 19.1292 41.2251 19.1292 43.386C19.1292 45.5468 20.9163 47.2985 23.1208 47.2985Z" fill="#EF91A3"/>
<path opacity="0.1" d="M22.8224 51.5477L23.9048 53.0276L24.5208 50.8389C24.7587 49.9633 24.8841 49.0619 24.8943 48.1558C24.8994 47.7716 25.027 47.3985 25.2591 47.0888C26.3699 46.495 27.1945 46.1815 28.5944 46.3224C29.9812 46.4708 31.2986 46.9941 32.3997 47.8339C36.5603 50.9661 38.5168 56.1716 38.5168 56.1716C38.5168 56.1716 32.8146 55.0537 33.0997 56.3114C33.0997 56.3114 30.605 52.3988 30.0347 53.0276C29.4645 53.6564 31.2465 61.9706 31.2465 61.9706L19.5569 62.809L16.4919 54.8441L16.6345 48.9054C16.6345 48.9054 19.6638 47.543 20.3053 47.543C20.5298 47.543 20.4956 47.4664 20.5904 47.8225C20.956 49.1948 21.9792 50.395 22.8224 51.5477Z" fill="black"/>
<path opacity="0.1" d="M38.3072 56.2464C37.3157 56.071 34.5074 55.6232 33.5537 56.0004C33.4332 55.4366 33.3213 55.0111 33.2422 54.914C32.9571 54.5647 37.4476 54.6345 37.4476 54.6345C37.7628 55.1567 38.0497 55.6947 38.3072 56.2464Z" fill="black"/>
<path d="M22.9649 51.4778L24.0474 52.9577L24.6633 50.7691C24.9012 49.8934 25.0267 48.9921 25.0368 48.0859C25.0419 47.7017 25.1695 47.3286 25.4016 47.019C26.5124 46.4251 27.337 46.1117 28.7369 46.2525C30.1237 46.4009 31.4412 46.9243 32.5422 47.764C36.7028 50.8962 38.6593 56.1017 38.6593 56.1017C38.6593 56.1017 32.9571 54.9839 33.2422 56.2415C33.2422 56.2415 30.7475 52.3289 30.1773 52.9577C29.607 53.5865 31.389 61.9007 31.389 61.9007L19.6994 62.7391L16.6345 54.7742L16.777 48.8355C16.777 48.8355 19.8063 47.4731 20.4478 47.4731C20.6724 47.4731 20.6381 47.3965 20.7329 47.7526C21.0986 49.1249 22.1218 50.3251 22.9649 51.4778Z" fill="#DFECFB"/>
<path opacity="0.1" d="M20.3496 46.15C19.949 46.22 19.4825 46.0875 19.2872 45.7376C19.21 45.5639 19.1553 45.3814 19.1243 45.1944C18.9173 44.3985 18.2403 43.8041 17.9069 43.0506C17.3453 41.7813 17.8384 40.3249 18.3327 39.0289C18.5756 38.3921 18.8366 37.7287 19.355 37.277C20.1517 36.5829 21.3396 36.5663 22.3964 36.7029C22.8245 36.7583 23.255 36.8326 23.6855 36.7992C24.116 36.7658 24.5569 36.6092 24.8293 36.2808C25.0588 36.4268 24.9739 36.7645 24.9271 37.0286C24.881 37.2893 24.919 37.5947 25.1336 37.7552C25.3482 37.9157 25.7485 37.7834 25.7306 37.5195C25.5376 38.0791 25.9636 38.6977 26.5123 38.9418C26.6945 39.0211 26.8868 39.0756 27.084 39.1037C27.4148 39.1503 27.717 39.3134 27.934 39.5625C28.1511 39.8116 28.2681 40.1297 28.2633 40.4572L28.2631 40.4632C28.2688 40.536 28.2521 40.6087 28.2152 40.6721C28.1694 40.7226 28.111 40.7606 28.0458 40.7824C27.4921 41.0308 27.0395 41.4541 26.7606 41.9847C26.6129 42.2677 26.5016 42.5955 26.2293 42.7681C25.8945 42.9801 25.4564 42.8745 25.059 42.9046C24.73 42.9353 24.4178 43.0615 24.1624 43.2671C23.907 43.4727 23.72 43.7483 23.6253 44.0586C23.5329 44.3822 23.5452 44.7347 23.3387 45.0223C23.2948 45.0873 23.2374 45.1424 23.1701 45.1839C23.1029 45.2255 23.0274 45.2525 22.9487 45.2633C22.6396 45.2962 22.4974 45.0244 22.2756 44.8841C21.7542 44.5544 21.4217 44.9897 21.257 45.4002C21.0761 45.8512 20.9498 46.0451 20.3496 46.15Z" fill="black"/>
<path d="M20.3496 46.0802C19.949 46.1502 19.4825 46.0177 19.2872 45.6678C19.21 45.4941 19.1553 45.3116 19.1243 45.1246C18.9173 44.3287 18.2403 43.7343 17.9069 42.9808C17.3453 41.7114 17.8384 40.2551 18.3327 38.9591C18.5756 38.3223 18.8366 37.6589 19.355 37.2072C20.1517 36.513 21.3396 36.4965 22.3964 36.6331C22.8245 36.6885 23.255 36.7628 23.6855 36.7294C24.116 36.696 24.5569 36.5394 24.8293 36.211C25.0588 36.357 24.9739 36.6946 24.9271 36.9588C24.881 37.2195 24.919 37.5249 25.1336 37.6854C25.3482 37.8458 25.7485 37.7136 25.7306 37.4496C25.5376 38.0092 25.9636 38.6278 26.5123 38.872C26.6945 38.9513 26.8868 39.0058 27.084 39.0339C27.4148 39.0805 27.717 39.2435 27.934 39.4927C28.1511 39.7418 28.2681 40.0598 28.2633 40.3874L28.2631 40.3934C28.2688 40.4661 28.2521 40.5389 28.2152 40.6022C28.1694 40.6527 28.111 40.6908 28.0458 40.7126C27.4921 40.9609 27.0395 41.3843 26.7606 41.9148C26.6129 42.1978 26.5016 42.5257 26.2293 42.6982C25.8945 42.9103 25.4564 42.8047 25.059 42.8348C24.73 42.8655 24.4178 42.9917 24.1624 43.1973C23.907 43.4029 23.72 43.6784 23.6253 43.9888C23.5329 44.3124 23.5452 44.6649 23.3387 44.9525C23.2948 45.0175 23.2374 45.0726 23.1701 45.1141C23.1029 45.1557 23.0274 45.1827 22.9487 45.1935C22.6396 45.2263 22.4974 44.9545 22.2756 44.8143C21.7542 44.4846 21.4217 44.9199 21.257 45.3304C21.0761 45.7814 20.9498 45.9752 20.3496 46.0802Z" fill="#572142"/>
<g opacity="0.05">
<path opacity="0.05" d="M31.6869 47.6942C35.535 50.5912 37.4975 55.2613 37.7706 55.9464C38.3019 56.0317 38.6593 56.1018 38.6593 56.1018C38.6593 56.1018 36.7028 50.8962 32.5422 47.7641C31.4412 46.9243 30.1237 46.401 28.7369 46.2525C28.5427 46.233 28.3605 46.223 28.1861 46.2205C29.4621 46.411 30.6673 46.9183 31.6869 47.6942Z" fill="black"/>
<path opacity="0.05" d="M19.8776 47.6827C20.2432 49.055 21.2664 50.2553 22.1095 51.4079L23.192 52.8878L23.4155 52.0938L22.9649 51.4778C22.1217 50.3251 21.0986 49.1249 20.7329 47.7526C20.6381 47.3965 20.6723 47.4731 20.4478 47.4731C20.2459 47.4915 20.0471 47.5353 19.8566 47.6033C19.8629 47.6273 19.8697 47.653 19.8776 47.6827Z" fill="black"/>
<path opacity="0.05" d="M32.8629 55.6685C33.0944 56.0097 33.2422 56.2415 33.2422 56.2415C33.1179 55.6928 34.1331 55.5964 35.3172 55.6619C34.3882 55.5652 33.4237 55.5236 32.8629 55.6685Z" fill="black"/>
<path opacity="0.05" d="M30.0935 53.1829C29.7566 52.8722 29.4723 52.722 29.3219 52.8878C28.7517 53.5166 30.5337 61.8309 30.5337 61.8309L19.6503 62.6115L19.6994 62.7392L31.389 61.9008C31.389 61.9008 29.8376 54.6616 30.0935 53.1829Z" fill="black"/>
</g>
<path d="M19.2924 69.8161C18.6103 70.3694 16.6737 71.6955 14.2823 71.1932C11.8988 70.6922 13.8981 69.5722 14.8119 69.1356C14.8603 69.1126 14.9027 69.0791 14.9361 69.0378C14.9695 68.9964 14.9929 68.9483 15.0046 68.8968C15.0163 68.8454 15.016 68.792 15.0038 68.7407C14.9915 68.6893 14.9676 68.6414 14.9338 68.6004C14.4097 67.973 13.8078 67.4123 13.1418 66.9312C12.5609 66.512 11.8617 65.7575 11.253 65.033V65.0323C10.9329 64.6529 10.6393 64.2826 10.3998 63.9717C10.3548 63.9132 10.3296 63.8425 10.3276 63.7693C10.3257 63.6961 10.3472 63.6241 10.3891 63.5635C10.431 63.5029 10.4911 63.4567 10.5612 63.4312C10.6312 63.4058 10.7076 63.4025 10.7797 63.4218L15.4527 64.6655C15.5259 64.6849 15.5908 64.7268 15.638 64.7849L17.174 66.6665L19.3444 69.3256C19.4033 69.3976 19.4308 69.4895 19.4211 69.5813C19.4113 69.6731 19.3651 69.7574 19.2924 69.8161Z" fill="#EF91A3"/>
<path opacity="0.1" d="M17.174 66.6664C13.2744 63.8787 11.8025 64.3769 11.253 65.0322C10.9329 64.6529 10.6393 64.2826 10.3998 63.9717C10.3548 63.9132 10.3296 63.8425 10.3276 63.7693C10.3257 63.6961 10.3472 63.6241 10.3891 63.5635C10.431 63.5029 10.4911 63.4567 10.5612 63.4312C10.6312 63.4058 10.7076 63.4025 10.7797 63.4218L15.4527 64.6654C15.5259 64.6849 15.5908 64.7268 15.638 64.7849L17.174 66.6664Z" fill="black"/>
<path d="M13.9259 58.058C13.9259 58.058 7.65346 56.0319 8.65135 60.2938C9.64924 64.5557 10.9322 65.6037 10.9322 65.6037C10.9322 65.6037 11.2886 62.2501 17.3472 66.6517L15.2089 63.2981L17.7036 60.2239L13.9259 58.058Z" fill="#5D526E"/>
<path opacity="0.1" d="M12.4291 54.2154C12.4291 54.2154 11.8589 57.1498 13.9259 60.713C15.5645 63.5377 13.6198 64.8257 12.7432 65.2383C12.6283 65.2924 12.4991 65.3103 12.3734 65.2896C12.2477 65.269 12.1316 65.2107 12.041 65.1228C11.4635 64.5628 10.3564 63.1426 11.0035 60.9226L11.4312 59.8048L9.07902 58.1279C9.07902 58.1279 8.44265 55.8143 8.7252 55.2943C9.00775 54.7743 11.2886 53.377 11.2886 53.377L12.4291 54.2154Z" fill="black"/>
<path d="M12.4291 54.0757C12.4291 54.0757 11.8589 57.0101 13.9259 60.5733C15.5645 63.398 13.6198 64.686 12.7432 65.0986C12.6283 65.1527 12.4991 65.1706 12.3734 65.1499C12.2477 65.1293 12.1316 65.071 12.041 64.9831C11.4635 64.4231 10.3564 63.0029 11.0035 60.7829L11.4312 59.6651L9.07902 57.9882C9.07902 57.9882 8.44265 55.6746 8.7252 55.1546C9.00775 54.6346 11.2886 53.2372 11.2886 53.2372L12.4291 54.0757Z" fill="#EF91A3"/>
<path d="M17.6324 48.4862C17.6324 48.4862 12.5004 51.3508 10.362 53.2372C8.2237 55.1236 8.65137 55.7524 8.65137 55.7524C8.65137 55.7524 10.7184 51.9796 12.5004 55.2634C12.5004 55.2634 17.4898 51.7001 18.8441 53.2372C20.1984 54.7743 17.6324 48.4862 17.6324 48.4862Z" fill="#DFECFB"/>
<path d="M15.7078 64.9749L19.9845 64.1365L19.4855 66.3023L16.3863 65.9861L15.7078 64.9749Z" fill="#5D526E"/>
<path d="M23.1208 55.7524L22.9782 57.2895L17.8462 56.4511L16.2781 55.4729L13.9259 54.6345C14.2034 53.8852 14.2468 53.0718 14.0507 52.2982C13.9618 51.9645 13.8237 51.6453 13.6408 51.3507C12.6429 49.7438 17.8462 50.4425 17.8462 50.4425C17.7898 50.8047 17.7636 51.1709 17.7678 51.5373C17.7785 52.7048 18.1157 54.3502 19.9846 54.0756L21.5527 54.9839L23.1208 55.7524Z" fill="#FFC1CD"/>
<path d="M18.0601 53.5865C18.0601 53.5865 20.6973 52.4686 21.9803 54.7742C23.2633 57.0799 23.8336 56.9401 23.8336 56.9401L21.2676 55.3332L18.0601 53.5865Z" fill="#FFC1CD"/>
<path d="M20.2696 65.2544C20.2696 65.2544 18.2739 66.8614 19.4143 68.8876C20.5548 70.9137 27.6825 70.5644 27.6825 70.5644C27.6825 70.5644 23.1579 68.8979 24.2798 63.3033C24.2798 63.3033 21.0537 64.2064 20.2696 65.2544Z" fill="#5F5470"/>
<path d="M29.7496 67.6299L29.0368 70.2848L31.5316 69.7958C31.5316 69.7958 30.4624 67.56 30.6049 66.9312C30.7475 66.3024 29.7496 67.6299 29.7496 67.6299Z" fill="#5F5470"/>
<path d="M31.7454 64.416C31.7454 64.416 38.2317 65.0448 40.0136 66.023L41.3679 66.4422C41.3679 66.4422 41.8669 66.3024 42.936 67.2107L48.4957 68.4683L52.7724 69.3067C52.7724 69.3067 56.6927 70.0054 56.9778 69.8657C57.2629 69.7259 59.1874 70.9137 57.3342 71.4726C55.4809 72.0316 51.6319 71.1932 51.6319 71.1932C51.6319 71.1932 48.7808 70.8438 48.1393 71.0534C47.4978 71.263 43.1499 70.6342 43.1499 70.6342L38.8732 70.9137C38.8732 70.9137 38.1604 69.8657 36.3072 70.215C34.9847 70.4643 32.6822 70.0732 31.4718 69.8287C31.2375 69.7815 31.0228 69.667 30.8552 69.4997C30.6876 69.3325 30.5746 69.12 30.5307 68.8895L30.106 66.6518L31.7454 64.416Z" fill="#FFC1CD"/>
<path opacity="0.05" d="M31.7454 64.416C31.7454 64.416 38.2317 65.0448 40.0136 66.023L41.3679 66.4422C41.3679 66.4422 41.8669 66.3024 42.936 67.2107L48.4957 68.4683L52.7724 69.3067C52.7724 69.3067 56.6927 70.0054 56.9778 69.8657C57.2629 69.7259 59.1874 70.9137 57.3342 71.4726C55.4809 72.0316 51.6319 71.1932 51.6319 71.1932C51.6319 71.1932 48.7808 70.8438 48.1393 71.0534C47.4978 71.263 43.1499 70.6342 43.1499 70.6342L38.8732 70.9137C38.8732 70.9137 38.1604 69.8657 36.3072 70.215C34.9847 70.4643 32.6822 70.0732 31.4718 69.8287C31.2375 69.7815 31.0228 69.667 30.8552 69.4997C30.6876 69.3325 30.5746 69.12 30.5307 68.8895L30.106 66.6518L31.7454 64.416Z" fill="black"/>
<path opacity="0.1" d="M17.7678 51.5373C17.2644 51.9618 16.6594 52.2543 16.0093 52.3873C15.3592 52.5204 14.6854 52.4897 14.0507 52.2982C13.9618 51.9645 13.8237 51.6453 13.6408 51.3507C12.6429 49.7438 17.8462 50.4425 17.8462 50.4425C17.7898 50.8047 17.7636 51.1709 17.7678 51.5373Z" fill="black"/>
<path d="M15.2089 52.3289C17.374 52.3289 19.1292 50.6085 19.1292 48.4862C19.1292 46.3639 17.374 44.6435 15.2089 44.6435C13.0438 44.6435 11.2886 46.3639 11.2886 48.4862C11.2886 50.6085 13.0438 52.3289 15.2089 52.3289Z" fill="#FFC1CD"/>
<path opacity="0.1" d="M13.5695 54.1455C13.5695 54.1455 16.5632 55.7524 16.7057 56.8005C16.8483 57.8485 16.2781 59.1061 16.2781 59.1061C16.2781 59.1061 17.6324 67.071 19.343 67.6299L23.9048 63.2981L27.7538 61.6213C27.7538 61.6213 25.4729 61.4816 25.2591 59.3855C25.0453 57.2895 25.5442 56.5909 22.9782 55.6127C20.4122 54.6346 19.0223 53.4818 19.0223 53.4818L18.3597 53.6456L21.7665 55.4031C21.7665 55.4031 23.691 56.521 18.7015 55.6826L13.9972 54.0058L13.5695 54.1455Z" fill="black"/>
<path d="M13.4983 54.0058C13.4983 54.0058 16.4919 55.6128 16.6345 56.6608C16.777 57.7088 16.2068 58.9664 16.2068 58.9664C16.2068 58.9664 17.5611 66.9313 19.2718 67.4903L23.8336 63.1585L27.6826 61.4817C27.6826 61.4817 25.4017 61.3419 25.1878 59.2459C24.974 57.1499 25.4729 56.4512 22.9069 55.4731C20.3409 54.4949 18.951 53.3421 18.951 53.3421L18.2884 53.506L21.6952 55.2635C21.6952 55.2635 23.6197 56.3813 18.6303 55.5429L13.9259 53.8661L13.4983 54.0058Z" fill="#FF808C"/>
<path opacity="0.1" d="M14.5674 54.5648C14.5674 54.5648 11.645 53.5168 12.3578 56.8704C13.0706 60.224 16.777 66.023 16.777 66.023L25.4729 63.0886C25.4729 63.0886 28.1815 61.0624 27.4687 60.8528C26.7559 60.6432 22.9782 61.9707 22.9782 61.9707L17.8462 62.7393L16.6345 59.3856C16.6345 59.3856 17.7749 58.6171 17.4185 57.6389C17.415 57.6292 17.4114 57.6194 17.4077 57.6095C16.9236 56.3075 15.9476 55.2375 14.6816 54.6207L14.5674 54.5648Z" fill="black"/>
<path d="M14.4249 54.4249C14.4249 54.4249 11.5025 53.3769 12.2153 56.7306C12.9281 60.0842 16.6345 65.8832 16.6345 65.8832L25.3304 62.9488C25.3304 62.9488 28.039 60.9226 27.3262 60.713C26.6134 60.5034 22.8357 61.8309 22.8357 61.8309L17.7037 62.5994L16.4919 59.2458C16.4919 59.2458 17.6324 58.4772 17.276 57.4991C17.2724 57.4893 17.2688 57.4795 17.2652 57.4697C16.7811 56.1676 15.8051 55.0977 14.539 54.4809L14.4249 54.4249Z" fill="#FFC1CD"/>
<path opacity="0.1" d="M14.6973 42.9754C14.3588 42.8802 14.0059 42.844 13.6546 42.8684C13.3239 42.9159 13.0034 43.0162 12.7057 43.1653C12.2266 43.3845 11.7679 43.6443 11.3349 43.9417C11.0437 44.1417 10.7583 44.3618 10.4223 44.476C9.91844 44.6472 9.33544 44.5676 8.87115 44.8248C8.22048 45.1853 8.07506 46.0496 8.17114 46.7762C8.26722 47.5027 8.53014 48.2267 8.41324 48.9503C8.23831 50.0332 7.28023 50.8024 6.40001 51.4789C6.12283 51.6919 5.82532 51.9421 5.78277 52.2848C5.75616 52.4991 5.83641 52.7104 5.90345 52.9161C6.27475 54.0427 6.25541 55.258 5.84846 56.3727C5.43269 57.4867 4.61333 58.4118 3.5465 58.9718C3.1419 59.1789 2.65099 59.3905 2.55623 59.8282C2.43592 60.3838 3.04635 60.8142 3.5899 61.0112C4.03333 61.1718 4.49183 61.2892 4.95875 61.3617C5.36941 61.4254 5.80846 61.4502 6.18322 61.2737C6.61931 61.0683 6.8853 60.6326 7.11577 60.2156C8.01309 58.5921 9.11466 57.7962 9.69524 56.0397C9.82046 55.6608 10.0202 55.2102 10.4245 55.1718C10.6775 55.1479 10.9061 55.3042 11.1211 55.437C12.1583 56.0775 13.2478 55.3597 14.2133 54.6192C14.4367 54.4478 14.6278 54.2328 14.8765 54.0991C15.4048 53.815 16.1742 53.8962 16.4909 53.3937C16.5645 53.2612 16.6157 53.1179 16.6426 52.9693C16.7724 52.423 16.902 51.8495 16.752 51.3082C16.6132 50.8073 16.2513 50.3967 16.0381 49.9216C15.8248 49.4465 15.8126 48.7973 16.2483 48.5023C16.3789 48.4138 16.5361 48.3681 16.6646 48.2767C17.039 48.0105 17.0474 47.4788 17.0454 47.0254C17.0359 46.9133 17.0555 46.8006 17.1023 46.6979C17.1708 46.6004 17.261 46.5193 17.366 46.4607C17.7818 46.1813 18.1057 45.7893 18.2979 45.3325C18.4867 44.8331 18.0031 44.6072 17.6167 44.3265C16.7438 43.6922 15.7517 43.2331 14.6973 42.9754Z" fill="black"/>
<path d="M14.626 42.9056C14.2876 42.8104 13.9346 42.7742 13.5833 42.7986C13.2526 42.8461 12.9321 42.9464 12.6345 43.0955C12.1553 43.3147 11.6966 43.5744 11.2636 43.8719C10.9724 44.0719 10.687 44.292 10.3511 44.4061C9.84715 44.5773 9.26415 44.4978 8.79987 44.755C8.14919 45.1155 8.00377 45.9798 8.09985 46.7063C8.19593 47.4329 8.45885 48.1569 8.34196 48.8805C8.16702 49.9634 7.20894 50.7326 6.32872 51.4091C6.05154 51.6221 5.75403 51.8722 5.71148 52.215C5.68487 52.4293 5.76512 52.6406 5.83216 52.8463C6.20346 53.9729 6.18412 55.1882 5.77717 56.3029C5.3614 57.4169 4.54204 58.342 3.47522 58.902C3.07061 59.1091 2.5797 59.3207 2.48494 59.7584C2.36463 60.314 2.97507 60.7444 3.51861 60.9414C3.96204 61.102 4.42054 61.2194 4.88746 61.2918C5.29812 61.3555 5.73717 61.3804 6.11193 61.2039C6.54802 60.9985 6.81401 60.5627 7.04449 60.1458C7.94181 58.5223 9.04337 57.7264 9.62395 55.9699C9.74917 55.591 9.94886 55.1403 10.3533 55.102C10.6062 55.0781 10.8348 55.2344 11.0498 55.3671C12.0871 56.0077 13.1765 55.2899 14.142 54.5494C14.3654 54.378 14.5565 54.163 14.8052 54.0293C15.3335 53.7451 16.1029 53.8264 16.4196 53.3239C16.4933 53.1914 16.5445 53.0481 16.5713 52.8995C16.7011 52.3532 16.8307 51.7797 16.6807 51.2383C16.542 50.7374 16.18 50.3269 15.9668 49.8517C15.7535 49.3766 15.7413 48.7274 16.177 48.4325C16.3076 48.344 16.4648 48.2983 16.5933 48.2069C16.9677 47.9407 16.9762 47.4089 16.9741 46.9555C16.9646 46.8434 16.9842 46.7308 17.031 46.6281C17.0996 46.5306 17.1897 46.4494 17.2947 46.3908C17.7106 46.1115 18.0344 45.7195 18.2266 45.2627C18.4154 44.7633 17.9318 44.5373 17.5454 44.2567C16.6725 43.6224 15.6804 43.1632 14.626 42.9056Z" fill="#B46D86"/>
<path d="M47.8186 73.5337C45.8834 73.9341 40.2367 73.7643 39.4078 73.1145C38.139 72.1196 38.4512 71.2358 38.5353 71.0534H38.5168C38.5168 71.0534 39.2296 69.3766 38.5168 68.119C38.5168 68.119 38.4455 66.5819 36.9487 65.3942C35.4518 64.2064 33.8125 60.8528 33.8125 60.8528L32.9571 62.5995C32.9571 62.5995 31.6713 66.4345 30.3377 68.1372C30.0709 68.475 29.8892 68.8697 29.8074 69.2893C29.719 69.7511 29.4139 70.3331 28.4666 70.4945L28.4174 70.5029C27.7542 70.6116 27.073 70.5325 26.454 70.275C25.8349 70.0175 25.3037 69.5921 24.9227 69.0489C24.2847 68.1486 23.5621 66.8989 23.3987 65.6817C23.3454 65.2722 23.3801 64.8563 23.5006 64.4607C23.621 64.0652 23.8245 63.6987 24.098 63.3848L24.1058 63.3757C25.6412 61.5976 30.9642 55.4814 31.8167 55.1237C31.8167 55.1237 35.6657 51.4906 37.1625 56.3813C38.6594 61.272 39.1583 62.7392 39.1583 62.7392C39.1583 62.7392 40.9481 65.8728 41.4392 66.9313C41.9467 68.0254 44.0579 70.7544 44.2725 71.0304C44.4685 71.1617 46.3552 72.4159 46.9632 72.4159C47.2319 72.4159 49.2127 73.2452 47.8186 73.5337Z" fill="#FFC1CD"/>
<g opacity="0.05">
<path opacity="0.05" d="M38.8085 69.1035C38.869 68.5605 38.836 67.9136 38.5168 67.3505C38.5168 67.3505 38.4455 65.8134 36.9487 64.6257C35.4519 63.4379 33.8125 60.0843 33.8125 60.0843L32.9571 61.831C32.9571 61.831 31.6713 65.666 30.3377 67.3687C30.0709 67.7064 29.8892 68.1012 29.8074 68.5208C29.719 68.9826 29.4139 69.5646 28.4666 69.726L28.4174 69.7344C27.7542 69.8431 27.073 69.764 26.454 69.5065C25.8349 69.2489 25.3037 68.8236 24.9227 68.2804C24.2918 67.3901 23.5791 66.1581 23.4053 64.9537C23.3656 65.2181 23.3634 65.4866 23.3987 65.7516C23.5621 66.9688 24.2847 68.2185 24.9227 69.1188C25.3037 69.662 25.8349 70.0873 26.454 70.3449C27.073 70.6024 27.7542 70.6815 28.4174 70.5728L28.4666 70.5644C29.4139 70.403 29.719 69.821 29.8074 69.3592C29.8892 68.9396 30.0709 68.5449 30.3377 68.2071C31.6713 66.5044 32.9571 62.6694 32.9571 62.6694L33.8125 60.9227C33.8125 60.9227 35.4519 64.2763 36.9487 65.4641C38.4455 66.6518 38.5168 68.1889 38.5168 68.1889C38.6734 68.4725 38.7724 68.7831 38.8085 69.1035Z" fill="black"/>
</g>
<path opacity="0.05" d="M20.234 60.0492C20.234 60.0492 23.299 59.9794 23.0851 59.0012L20.234 60.0492Z" fill="black"/>
<path d="M70.5005 63.5396C70.5005 63.5396 75.2593 60.3261 79.9125 61.4664C84.5656 62.6067 81.0757 66.5457 81.0757 66.5457L70.5005 63.5396Z" fill="#EED1D7"/>
<path d="M68.5969 61.4664C68.5969 61.4664 73.25 59.4969 76.4226 61.5701C79.5952 63.6433 85.9403 64.6799 85.9403 64.6799" fill="#CCB2BB"/>
<defs>
<linearGradient id="paint0_linear" x1="25.6161" y1="37.29" x2="25.6161" y2="37.147" gradientUnits="userSpaceOnUse">
<stop stop-color="#808080" stop-opacity="0.25"/>
<stop offset="0.53514" stop-color="#808080" stop-opacity="0.12"/>
<stop offset="1" stop-color="#808080" stop-opacity="0.1"/>
</linearGradient>
<linearGradient id="paint1_linear" x1="36.2579" y1="91.3814" x2="36.2579" y2="91.1854" gradientUnits="userSpaceOnUse">
<stop stop-color="#808080" stop-opacity="0.25"/>
<stop offset="0.53514" stop-color="#808080" stop-opacity="0.12"/>
<stop offset="1" stop-color="#808080" stop-opacity="0.1"/>
</linearGradient>
<linearGradient id="paint2_linear" x1="772.606" y1="2050.47" x2="772.606" y2="1930.01" gradientUnits="userSpaceOnUse">
<stop stop-color="#808080" stop-opacity="0.25"/>
<stop offset="0.53514" stop-color="#808080" stop-opacity="0.12"/>
<stop offset="1" stop-color="#808080" stop-opacity="0.1"/>
</linearGradient>
</defs>
</svg>
