<svg width="132" height="48" viewBox="0 0 132 48" fill="none" xmlns="http://www.w3.org/2000/svg">
<path d="M48.6272 22.306C48.4765 22.3062 48.332 22.369 48.2254 22.4806C48.1188 22.5921 48.0589 22.7434 48.0587 22.9011V46.6711C48.0589 46.8289 48.1188 46.9801 48.2254 47.0917C48.332 47.2032 48.4765 47.266 48.6272 47.2662H52.4826C52.6333 47.266 52.7778 47.2032 52.8844 47.0917C52.991 46.9801 53.0509 46.8289 53.0511 46.6711V22.9011C53.0509 22.7434 52.991 22.5921 52.8844 22.4806C52.7778 22.369 52.6333 22.3062 52.4826 22.306H48.6272Z" fill="#3F3D56"/>
<path d="M80.6876 22.306C80.5369 22.3062 80.3923 22.369 80.2858 22.4805C80.1792 22.5921 80.1192 22.7433 80.119 22.9011V46.6711C80.1192 46.8289 80.1792 46.9801 80.2858 47.0917C80.3923 47.2033 80.5369 47.266 80.6876 47.2662H84.5429C84.6936 47.266 84.8381 47.2033 84.9447 47.0917C85.0513 46.9801 85.1113 46.8289 85.1115 46.6711V22.9011C85.1113 22.7433 85.0513 22.5921 84.9447 22.4805C84.8381 22.369 84.6936 22.3062 84.5429 22.306H80.6876Z" fill="#3F3D56"/>
<path d="M98.6997 3.42075L69.1391 1.0321L92.7223 5.24069L98.3737 4.21696L98.6997 3.42075Z" fill="#3F3D56"/>
<path d="M92.9397 4.86622L98.5911 3.8425L98.6466 3.70695L98.9171 3.72882L98.5911 4.52503L92.9397 5.54876L69.3564 1.0321L76.3453 1.90487L92.9397 4.86622Z" fill="#727272"/>
<path d="M31.7535 3.42075L2.19272 1.0321L25.7761 5.24069L31.4275 4.21696L31.7535 3.42075Z" fill="#3F3D56"/>
<path d="M25.4501 4.86622L31.1013 3.8425L31.157 3.70695L31.4275 3.72882L31.1013 4.52503L25.4501 5.54876L1.8667 1.0321L8.85558 1.90487L25.4501 4.86622Z" fill="#727272"/>
<path d="M103.699 15.819L101.199 15.9328L78.2996 26.0447L76.9889 27.1936L72.8341 30.8335H59.7926L55.865 27.1936L54.3717 25.8093L32.4055 16.0465L30.4493 15.819L36.9701 12.5204H37.0048C38.4829 11.0519 51.2831 9.90424 66.8568 9.90424C82.4305 9.90424 95.2307 11.0519 96.7087 12.5204H96.8522L103.699 15.819Z" fill="#3F3D56"/>
<path d="M36.791 12.6891C36.8373 12.5527 36.8611 12.409 36.8614 12.2643V6.86179C36.8614 6.52235 36.7325 6.19681 36.5032 5.95679C36.2739 5.71677 35.9629 5.58193 35.6385 5.58193H35.142C35.5497 5.15131 35.8265 4.60404 35.9375 4.00908C36.0486 3.41411 35.9889 2.79806 35.766 2.23852C35.5431 1.67899 35.167 1.20101 34.685 0.8648C34.2031 0.528587 33.6368 0.349182 33.0576 0.349182C32.4784 0.349182 31.9122 0.528587 31.4302 0.8648C30.9482 1.20101 30.5721 1.67899 30.3492 2.23852C30.1264 2.79806 30.0667 3.41411 30.1777 4.00908C30.2887 4.60404 30.5655 5.15131 30.9732 5.58193H30.4767C30.3161 5.58193 30.1571 5.61503 30.0087 5.67935C29.8604 5.74367 29.7256 5.83795 29.612 5.95679C29.4985 6.07564 29.4084 6.21673 29.3469 6.37201C29.2855 6.52729 29.2539 6.69372 29.2539 6.86179V12.2643C29.2538 12.4855 29.3088 12.7029 29.4135 12.8951C29.0444 12.9628 28.6753 13.0363 28.3062 13.1213C28.0814 13.1739 27.8805 13.3052 27.7366 13.4936C27.5927 13.6819 27.5146 13.9159 27.515 14.1571V15.4406C27.515 15.722 27.6218 15.9919 27.8119 16.1908C28.002 16.3898 28.2598 16.5015 28.5286 16.5015H40.0131V13.3167C38.9526 13.0371 37.8765 12.8275 36.791 12.6891Z" fill="#3F3D56"/>
<path d="M104.755 13.1213C104.386 13.0363 104.017 12.9628 103.648 12.895C103.753 12.7029 103.808 12.4854 103.808 12.2642V6.86174C103.808 6.69367 103.776 6.52724 103.715 6.37196C103.653 6.21668 103.563 6.07559 103.45 5.95675C103.336 5.8379 103.201 5.74362 103.053 5.6793C102.904 5.61498 102.745 5.58188 102.585 5.58188H102.088C102.496 5.15126 102.773 4.60399 102.884 4.00902C102.995 3.41405 102.935 2.798 102.712 2.23847C102.489 1.67894 102.113 1.20095 101.631 0.86474C101.149 0.528526 100.583 0.349121 100.004 0.349121C99.4247 0.349121 98.8585 0.528526 98.3765 0.86474C97.8945 1.20095 97.5184 1.67894 97.2955 2.23847C97.0727 2.798 97.013 3.41405 97.124 4.00902C97.235 4.60399 97.5118 5.15126 97.9195 5.58188H97.423C97.2624 5.58188 97.1034 5.61498 96.955 5.6793C96.8067 5.74362 96.6719 5.8379 96.5583 5.95675C96.4448 6.07559 96.3547 6.21668 96.2932 6.37196C96.2318 6.52724 96.2002 6.69367 96.2002 6.86174V12.2642C96.2004 12.409 96.2242 12.5526 96.2706 12.689C95.1851 12.8275 94.1089 13.0371 93.0485 13.3166V16.5015H104.533C104.802 16.5015 105.06 16.3897 105.25 16.1908C105.44 15.9918 105.547 15.722 105.547 15.4406V14.157C105.547 13.9159 105.469 13.6818 105.325 13.4935C105.181 13.3052 104.98 13.1739 104.755 13.1213Z" fill="#3F3D56"/>
<path d="M101.308 3.42075L130.869 1.0321L107.285 5.24069L101.634 4.21696L101.308 3.42075Z" fill="#3F3D56"/>
<path d="M68.6063 29.8097H64.0204C63.8505 29.8097 63.6823 29.8447 63.5254 29.9127C63.3685 29.9808 63.2259 30.0805 63.1058 30.2062C62.9857 30.3319 62.8904 30.4811 62.8254 30.6454C62.7604 30.8096 62.7269 30.9857 62.7269 31.1634V32.2096C62.7271 32.4844 62.8072 32.7526 62.9566 32.9786C63.1059 33.2046 63.3175 33.3776 63.5632 33.4746C63.3736 33.7129 63.2699 34.0132 63.2703 34.3233V34.6233C63.2703 34.8372 63.3197 35.048 63.4143 35.2376C63.5089 35.4272 63.6459 35.5901 63.8137 35.7123V39.7056H68.813V35.7123C68.9807 35.5901 69.1178 35.4272 69.2124 35.2376C69.307 35.048 69.3564 34.8372 69.3563 34.6233V34.3233C69.3567 34.0132 69.2531 33.7129 69.0635 33.4747C69.3091 33.3776 69.5207 33.2046 69.6701 32.9786C69.8195 32.7526 69.8996 32.4844 69.8997 32.2096V31.1635C69.8997 30.9857 69.8663 30.8096 69.8013 30.6454C69.7363 30.4811 69.641 30.3319 69.5209 30.2062C69.4008 30.0805 69.2582 29.9808 69.1013 29.9127C68.9444 29.8447 68.7762 29.8097 68.6063 29.8097Z" fill="#3F3D56"/>
<path d="M61.653 39.1405C61.4489 39.1408 61.2531 39.2257 61.1087 39.3768C60.9644 39.5279 60.8831 39.7328 60.8829 39.9465V46.4032C60.8831 46.6169 60.9643 46.8218 61.1087 46.973C61.2531 47.1241 61.4488 47.2091 61.653 47.2094H70.9738C71.178 47.2091 71.3738 47.1241 71.5181 46.9729C71.6625 46.8218 71.7437 46.6169 71.7439 46.4032V39.9465C71.7437 39.7328 71.6624 39.528 71.5181 39.3769C71.3737 39.2258 71.178 39.1408 70.9738 39.1405H61.653Z" fill="#727272"/>
<path d="M76.9889 27.1936L72.8341 30.8335H59.7926L55.865 27.1936H59.7709L59.9415 26.303C59.9915 26.041 60.1267 25.8053 60.3241 25.6358C60.5214 25.4664 60.7687 25.3738 61.024 25.3737H71.9288C72.1841 25.3738 72.4314 25.4664 72.6287 25.6358C72.8261 25.8053 72.9613 26.041 73.0113 26.303L73.1819 27.1936H76.9889Z" fill="#2B5DDE"/>
<path d="M66.3133 46.3598C67.9939 46.3598 69.3564 44.9339 69.3564 43.1749C69.3564 41.416 67.9939 39.9901 66.3133 39.9901C64.6327 39.9901 63.2703 41.416 63.2703 43.1749C63.2703 44.9339 64.6327 46.3598 66.3133 46.3598Z" fill="#3F3D56"/>
<path d="M66.3134 44.9948C67.2737 44.9948 68.0523 44.18 68.0523 43.1749C68.0523 42.1698 67.2737 41.355 66.3134 41.355C65.353 41.355 64.5745 42.1698 64.5745 43.1749C64.5745 44.18 65.353 44.9948 66.3134 44.9948Z" fill="#E6E6E6"/>
<path d="M67.3644 41.7275C67.6195 42.0774 67.7446 42.5122 67.7165 42.9513C67.6884 43.3904 67.5091 43.8039 67.2117 44.1151C66.9144 44.4263 66.5193 44.614 66.0998 44.6434C65.6802 44.6728 65.2647 44.5419 64.9304 44.275C65.0803 44.4819 65.2709 44.6529 65.4892 44.7763C65.7076 44.8998 65.9486 44.9728 66.1962 44.9906C66.4438 45.0083 66.6921 44.9703 66.9245 44.8792C67.1569 44.7881 67.3679 44.6459 67.5434 44.4622C67.7189 44.2786 67.8547 44.0577 67.9418 43.8145C68.0288 43.5713 68.0651 43.3114 68.0482 43.0523C68.0312 42.7931 67.9614 42.5408 67.8435 42.3123C67.7255 42.0838 67.5622 41.8844 67.3644 41.7275Z" fill="white"/>
<path d="M105.601 14.478H27.5693V14.9989H105.601V14.478Z" fill="#E6E6E6"/>
<path d="M107.503 4.86622L101.851 3.8425L101.796 3.70695L101.525 3.72882L101.851 4.52503L107.503 5.54876L131.086 1.0321L124.097 1.90487L107.503 4.86622Z" fill="#727272"/>
<path d="M34.3617 3.42075L63.9225 1.0321L40.339 5.24069L34.6878 4.21696L34.3617 3.42075Z" fill="#3F3D56"/>
<path d="M40.6652 4.86622L35.0139 3.8425L34.9584 3.70695L34.6879 3.72882L35.0139 4.52503L40.6652 5.54876L64.2485 1.0321L57.2596 1.90487L40.6652 4.86622Z" fill="#727272"/>
<path d="M70.8236 26.3405H62.1292V28.1605H70.8236V26.3405Z" fill="#E6E6E6"/>
<path d="M131.648 47.2042H0.957031V47.5484H131.648V47.2042Z" fill="#3F3D56"/>
</svg>
